# xmcd
#
# Track frame offsets:
#	150
#	21782
#	37215
#	58647
#	73115
#	91612
#	103007
#	119142
#	136670
#	150795
#	171237
#	184092
#
# Disc length: 2664 seconds
#
# Revision: 0
# Processed by: cddbd v1.4PL0 Copyright (c) Steve Scherf et al.
# Submitted via: dBpowerAMP V4.0
#
DISCID=9c0a660c
DTITLE=The Tony Brook Band - Cross and Chain
DYEAR=1999
DGENRE=Blues
TTITLE0=Medusa
TTITLE1=Cross and Chain
TTITLE2=Christine
TTITLE3=Day of Rest
TTITLE4=Jelly Jam
TTITLE5=When Flowers Bloom
TTITLE6=Everything is Alright
TTITLE7=Days Gone By
TTITLE8=Blue Highway
TTITLE9=Southland
TTITLE10=So Bad
TTITLE11=Atchafalya
EXTD=
EXTT0=
EXTT1=
EXTT2=
EXTT3=
EXTT4=
EXTT5=
EXTT6=
EXTT7=
EXTT8=
EXTT9=
EXTT10=
EXTT11=
PLAYORDER=
